{
	"asset":{
		"generator":"Khronos glTF Blender I/O v4.0.44",
		"version":"2.0"
	},
	"extensionsUsed":[
		"KHR_materials_specular",
		"KHR_materials_ior"
	],
	"scene":0,
	"scenes":[
		{
			"name":"Scene",
			"nodes":[
				0,
				1,
				2,
				3,
				4,
				5,
				6,
				7
			]
		}
	],
	"nodes":[
		{
			"mesh":0,
			"name":"Cube"
		},
		{
			"mesh":1,
			"name":"Cylinder",
			"scale":[
				0.3687863349914551,
				0.3687863349914551,
				0.3687863349914551
			],
			"translation":[
				-0.4383200407028198,
				-0.8444604873657227,
				-0.024981094524264336
			]
		},
		{
			"mesh":2,
			"name":"Cube.001",
			"rotation":[
				0.062219373881816864,
				-0.024363748729228973,
				0.0015192943392321467,
				0.9977639317512512
			],
			"scale":[
				0.38460636138916016,
				0.38460636138916016,
				0.38460633158683777
			],
			"translation":[
				0.03475642204284668,
				0.9407513737678528,
				-0.3747105896472931
			]
		},
		{
			"mesh":3,
			"name":"Cube.002",
			"scale":[
				0.7061893343925476,
				0.7061893343925476,
				0.7061893343925476
			],
			"translation":[
				-0.03416013717651367,
				0.4375099241733551,
				1.460481882095337
			]
		},
		{
			"mesh":4,
			"name":"Cube.003",
			"scale":[
				0.4374351501464844,
				0.4374351501464844,
				0.4374351501464844
			],
			"translation":[
				0.11285528540611267,
				0.7036600112915039,
				1.2120493650436401
			]
		},
		{
			"mesh":5,
			"name":"Cylinder.001",
			"scale":[
				0.21364885568618774,
				0.21364885568618774,
				0.21364885568618774
			],
			"translation":[
				0.6059843301773071,
				0.3294370770454407,
				-0.9668880701065063
			]
		},
		{
			"mesh":6,
			"name":"Torus",
			"rotation":[
				0.20058655738830566,
				0.20217715203762054,
				0.6751413345336914,
				0.6804951429367065
			],
			"scale":[
				0.11551110446453094,
				0.11551108956336975,
				0.11551108211278915
			],
			"translation":[
				0.7492077350616455,
				0.34184929728507996,
				-0.773225724697113
			]
		},
		{
			"mesh":7,
			"name":"Cylinder.002",
			"scale":[
				0.1833992451429367,
				0.1833992451429367,
				0.1833992451429367
			],
			"translation":[
				0.6038597822189331,
				0.33938276767730713,
				-0.9661757349967957
			]
		}
	],
	"materials":[
		{
			"doubleSided":true,
			"extensions":{
				"KHR_materials_specular":{
					"specularColorFactor":[
						0.9865976572036743,
						0.9315588474273682,
						1.0
					]
				},
				"KHR_materials_ior":{
					"ior":1.75
				}
			},
			"name":"Cuerpo",
			"pbrMetallicRoughness":{
				"baseColorFactor":[
					0.8033040761947632,
					0.20501673221588135,
					0,
					1
				],
				"metallicFactor":0,
				"roughnessFactor":0.4000000059604645
			}
		},
		{
			"doubleSided":true,
			"name":"Lente",
			"pbrMetallicRoughness":{
				"baseColorFactor":[
					0.413573682308197,
					0.5742223858833313,
					0.8010406494140625,
					1
				],
				"roughnessFactor":0.5
			}
		},
		{
			"doubleSided":true,
			"name":"Material.002",
			"pbrMetallicRoughness":{
				"baseColorFactor":[
					0.07232019305229187,
					0.1467563360929489,
					0.0374695360660553,
					1
				],
				"metallicFactor":0,
				"roughnessFactor":0.5
			}
		},
		{
			"doubleSided":true,
			"name":"Material",
			"pbrMetallicRoughness":{
				"baseColorFactor":[
					0.0010824253549799323,
					0.22343286871910095,
					0.014594883657991886,
					1
				],
				"metallicFactor":0,
				"roughnessFactor":0.800000011920929
			}
		},
		{
			"doubleSided":true,
			"name":"Material.004",
			"pbrMetallicRoughness":{
				"baseColorFactor":[
					0.8004660606384277,
					0.0610317662358284,
					0.3993335962295532,
					1
				],
				"metallicFactor":0,
				"roughnessFactor":5
			}
		},
		{
			"doubleSided":true,
			"name":"Material.003",
			"pbrMetallicRoughness":{
				"baseColorFactor":[
					0.16417653858661652,
					0.03651744872331619,
					0.03495559096336365,
					1
				],
				"metallicFactor":0.5,
				"roughnessFactor":0.5
			}
		}
	],
	"meshes":[
		{
			"name":"Cube",
			"primitives":[
				{
					"attributes":{
						"POSITION":0,
						"NORMAL":1,
						"TEXCOORD_0":2
					},
					"indices":3,
					"material":0
				}
			]
		},
		{
			"name":"Cylinder",
			"primitives":[
				{
					"attributes":{
						"POSITION":4,
						"NORMAL":5,
						"TEXCOORD_0":6
					},
					"indices":7,
					"material":0
				}
			]
		},
		{
			"name":"Cube.001",
			"primitives":[
				{
					"attributes":{
						"POSITION":8,
						"NORMAL":9,
						"TEXCOORD_0":10
					},
					"indices":11,
					"material":1
				}
			]
		},
		{
			"name":"Cube.002",
			"primitives":[
				{
					"attributes":{
						"POSITION":12,
						"NORMAL":13,
						"TEXCOORD_0":14
					},
					"indices":15,
					"material":2
				}
			]
		},
		{
			"name":"Cube.003",
			"primitives":[
				{
					"attributes":{
						"POSITION":16,
						"NORMAL":17,
						"TEXCOORD_0":18
					},
					"indices":19,
					"material":3
				}
			]
		},
		{
			"name":"Cylinder.001",
			"primitives":[
				{
					"attributes":{
						"POSITION":20,
						"NORMAL":21,
						"TEXCOORD_0":22
					},
					"indices":23,
					"material":4
				}
			]
		},
		{
			"name":"Torus",
			"primitives":[
				{
					"attributes":{
						"POSITION":24,
						"NORMAL":25,
						"TEXCOORD_0":26
					},
					"indices":27,
					"material":4
				}
			]
		},
		{
			"name":"Cylinder.002",
			"primitives":[
				{
					"attributes":{
						"POSITION":28,
						"NORMAL":29,
						"TEXCOORD_0":30
					},
					"indices":31,
					"material":5
				}
			]
		}
	],
	"accessors":[
		{
			"bufferView":0,
			"componentType":5126,
			"count":19,
			"max":[
				1.2677273750305176,
				1.961333990097046,
				1
			],
			"min":[
				-1.2955670356750488,
				-1,
				-0.9187329411506653
			],
			"type":"VEC3"
		},
		{
			"bufferView":1,
			"componentType":5126,
			"count":19,
			"type":"VEC3"
		},
		{
			"bufferView":2,
			"componentType":5126,
			"count":19,
			"type":"VEC2"
		},
		{
			"bufferView":3,
			"componentType":5123,
			"count":60,
			"type":"SCALAR"
		},
		{
			"bufferView":4,
			"componentType":5126,
			"count":114,
			"max":[
				1,
				1,
				1
			],
			"min":[
				-1,
				-1.5290625095367432,
				-1
			],
			"type":"VEC3"
		},
		{
			"bufferView":5,
			"componentType":5126,
			"count":114,
			"type":"VEC3"
		},
		{
			"bufferView":6,
			"componentType":5126,
			"count":114,
			"type":"VEC2"
		},
		{
			"bufferView":7,
			"componentType":5123,
			"count":462,
			"type":"SCALAR"
		},
		{
			"bufferView":8,
			"componentType":5126,
			"count":18,
			"max":[
				1.4634182453155518,
				0.999834418296814,
				-0.05882352963089943
			],
			"min":[
				-1.5137081146240234,
				-1.029140591621399,
				-1.2211802005767822
			],
			"type":"VEC3"
		},
		{
			"bufferView":9,
			"componentType":5126,
			"count":18,
			"type":"VEC3"
		},
		{
			"bufferView":10,
			"componentType":5126,
			"count":18,
			"type":"VEC2"
		},
		{
			"bufferView":11,
			"componentType":5123,
			"count":48,
			"type":"SCALAR"
		},
		{
			"bufferView":12,
			"componentType":5126,
			"count":62,
			"max":[
				1,
				1,
				-0.2063596248626709
			],
			"min":[
				-1,
				-1,
				-1
			],
			"type":"VEC3"
		},
		{
			"bufferView":13,
			"componentType":5126,
			"count":62,
			"type":"VEC3"
		},
		{
			"bufferView":14,
			"componentType":5126,
			"count":62,
			"type":"VEC2"
		},
		{
			"bufferView":15,
			"componentType":5123,
			"count":228,
			"type":"SCALAR"
		},
		{
			"bufferView":16,
			"componentType":5126,
			"count":44,
			"max":[
				1,
				1.1734974384307861,
				0.4358510375022888
			],
			"min":[
				0.24647243320941925,
				-1,
				-1
			],
			"type":"VEC3"
		},
		{
			"bufferView":17,
			"componentType":5126,
			"count":44,
			"type":"VEC3"
		},
		{
			"bufferView":18,
			"componentType":5126,
			"count":44,
			"type":"VEC2"
		},
		{
			"bufferView":19,
			"componentType":5123,
			"count":180,
			"type":"SCALAR"
		},
		{
			"bufferView":20,
			"componentType":5126,
			"count":181,
			"max":[
				1,
				1.0051968097686768,
				1
			],
			"min":[
				-1,
				-1,
				-1
			],
			"type":"VEC3"
		},
		{
			"bufferView":21,
			"componentType":5126,
			"count":181,
			"type":"VEC3"
		},
		{
			"bufferView":22,
			"componentType":5126,
			"count":181,
			"type":"VEC2"
		},
		{
			"bufferView":23,
			"componentType":5123,
			"count":762,
			"type":"SCALAR"
		},
		{
			"bufferView":24,
			"componentType":5126,
			"count":637,
			"max":[
				1.2499217987060547,
				0.4344138503074646,
				1.25
			],
			"min":[
				-1.2500782012939453,
				-0.4245082437992096,
				-1.25
			],
			"type":"VEC3"
		},
		{
			"bufferView":25,
			"componentType":5126,
			"count":637,
			"type":"VEC3"
		},
		{
			"bufferView":26,
			"componentType":5126,
			"count":637,
			"type":"VEC2"
		},
		{
			"bufferView":27,
			"componentType":5123,
			"count":3456,
			"type":"SCALAR"
		},
		{
			"bufferView":28,
			"componentType":5126,
			"count":96,
			"max":[
				1,
				0.8507827520370483,
				1
			],
			"min":[
				-1,
				-1.1492172479629517,
				-1
			],
			"type":"VEC3"
		},
		{
			"bufferView":29,
			"componentType":5126,
			"count":96,
			"type":"VEC3"
		},
		{
			"bufferView":30,
			"componentType":5126,
			"count":96,
			"type":"VEC2"
		},
		{
			"bufferView":31,
			"componentType":5123,
			"count":180,
			"type":"SCALAR"
		}
	],
	"bufferViews":[
		{
			"buffer":0,
			"byteLength":228,
			"byteOffset":0,
			"target":34962
		},
		{
			"buffer":0,
			"byteLength":228,
			"byteOffset":228,
			"target":34962
		},
		{
			"buffer":0,
			"byteLength":152,
			"byteOffset":456,
			"target":34962
		},
		{
			"buffer":0,
			"byteLength":120,
			"byteOffset":608,
			"target":34963
		},
		{
			"buffer":0,
			"byteLength":1368,
			"byteOffset":728,
			"target":34962
		},
		{
			"buffer":0,
			"byteLength":1368,
			"byteOffset":2096,
			"target":34962
		},
		{
			"buffer":0,
			"byteLength":912,
			"byteOffset":3464,
			"target":34962
		},
		{
			"buffer":0,
			"byteLength":924,
			"byteOffset":4376,
			"target":34963
		},
		{
			"buffer":0,
			"byteLength":216,
			"byteOffset":5300,
			"target":34962
		},
		{
			"buffer":0,
			"byteLength":216,
			"byteOffset":5516,
			"target":34962
		},
		{
			"buffer":0,
			"byteLength":144,
			"byteOffset":5732,
			"target":34962
		},
		{
			"buffer":0,
			"byteLength":96,
			"byteOffset":5876,
			"target":34963
		},
		{
			"buffer":0,
			"byteLength":744,
			"byteOffset":5972,
			"target":34962
		},
		{
			"buffer":0,
			"byteLength":744,
			"byteOffset":6716,
			"target":34962
		},
		{
			"buffer":0,
			"byteLength":496,
			"byteOffset":7460,
			"target":34962
		},
		{
			"buffer":0,
			"byteLength":456,
			"byteOffset":7956,
			"target":34963
		},
		{
			"buffer":0,
			"byteLength":528,
			"byteOffset":8412,
			"target":34962
		},
		{
			"buffer":0,
			"byteLength":528,
			"byteOffset":8940,
			"target":34962
		},
		{
			"buffer":0,
			"byteLength":352,
			"byteOffset":9468,
			"target":34962
		},
		{
			"buffer":0,
			"byteLength":360,
			"byteOffset":9820,
			"target":34963
		},
		{
			"buffer":0,
			"byteLength":2172,
			"byteOffset":10180,
			"target":34962
		},
		{
			"buffer":0,
			"byteLength":2172,
			"byteOffset":12352,
			"target":34962
		},
		{
			"buffer":0,
			"byteLength":1448,
			"byteOffset":14524,
			"target":34962
		},
		{
			"buffer":0,
			"byteLength":1524,
			"byteOffset":15972,
			"target":34963
		},
		{
			"buffer":0,
			"byteLength":7644,
			"byteOffset":17496,
			"target":34962
		},
		{
			"buffer":0,
			"byteLength":7644,
			"byteOffset":25140,
			"target":34962
		},
		{
			"buffer":0,
			"byteLength":5096,
			"byteOffset":32784,
			"target":34962
		},
		{
			"buffer":0,
			"byteLength":6912,
			"byteOffset":37880,
			"target":34963
		},
		{
			"buffer":0,
			"byteLength":1152,
			"byteOffset":44792,
			"target":34962
		},
		{
			"buffer":0,
			"byteLength":1152,
			"byteOffset":45944,
			"target":34962
		},
		{
			"buffer":0,
			"byteLength":768,
			"byteOffset":47096,
			"target":34962
		},
		{
			"buffer":0,
			"byteLength":360,
			"byteOffset":47864,
			"target":34963
		}
	],
	"buffers":[
		{
			"byteLength":48224,
			"uri":"amongus.bin"
		}
	]
}
